# xmcd CD database file
#
# Track frame offsets:
#	150
#	4297
#	32180
#	57730
#	85728
#	127892
#	147046
#	173028
#	200826
#	225115
#	277869
#	306636
#
# Disc length: 4677 seconds
#
# Revision: 1
# Processed by: cddbd v1.5.2PL0 Copyright (c) Steve Scherf et al.
# Submitted via: CDex 1.75
#
DISCID=a112430c
DTITLE=Andrew Holecek - Dream Yoga d5 - Dream Yoga and Illusory Form
DYEAR=2013
DGENRE=New Age
TTITLE0=Intro
TTITLE1=Differences between lucid dream and dream yoga
TTITLE2=A fundamental question
TTITLE3=A crash course in Buddhism
TTITLE4=Solid, lasting, and dependent
TTITLE5=The irreducible instruction of the Buddha
TTITLE6=The world of illusory form
TTITLE7=The irony of awakening
TTITLE8=Working with fear
TTITLE9=Illusory body practice
TTITLE10=Illusory speech and mind practices
TTITLE11=The fruition of illusory form
EXTD=YEAR: 2013
EXTT0=
EXTT1=
EXTT2=
EXTT3=
EXTT4=
EXTT5=
EXTT6=
EXTT7=
EXTT8=
EXTT9=
EXTT10=
EXTT11=
PLAYORDER=
